<?xml version="1.0" standalone="no"?>
<!DOCTYPE svg PUBLIC "-//W3C//DTD SVG 20010904//EN"
 "http://www.w3.org/TR/2001/REC-SVG-20010904/DTD/svg10.dtd">
<svg version="1.0" xmlns="http://www.w3.org/2000/svg"
 width="592.000000pt" height="585.000000pt" viewBox="0 0 592.000000 585.000000"
 preserveAspectRatio="xMidYMid meet">

<g transform="translate(0.000000,585.000000) scale(0.100000,-0.100000)"
fill="#000000" stroke="none">
<path d="M3405 5419 c-143 -19 -297 -73 -409 -142 l-39 -24 -111 57 c-144 73
-248 102 -394 108 -343 14 -656 -138 -876 -427 -94 -124 -169 -287 -197 -429
-14 -74 -28 -92 -73 -92 -42 0 -173 -34 -256 -67 -300 -118 -553 -420 -647
-773 -34 -132 -43 -363 -18 -510 40 -241 154 -470 318 -642 l65 -68 4 -292 c4
-251 8 -309 27 -401 117 -573 528 -1037 1087 -1226 234 -79 179 -74 1043 -78
750 -4 777 -3 878 17 486 97 886 386 1135 820 35 60 103 225 127 308 47 156
54 217 60 533 l6 305 75 82 c226 249 330 519 330 855 0 126 -33 323 -70 416
-154 392 -454 651 -829 716 -46 8 -87 15 -92 15 -4 0 -13 26 -19 58 -29 140
-95 295 -178 420 -47 72 -160 191 -235 249 -201 155 -492 241 -712 212z m-839
-239 c97 -24 242 -95 308 -149 59 -50 92 -53 138 -12 57 50 164 109 255 141
173 62 367 50 549 -35 284 -131 485 -426 510 -749 10 -123 8 -122 161 -129
152 -8 208 -21 329 -81 205 -102 372 -300 443 -526 69 -220 57 -497 -30 -707
-62 -149 -133 -246 -260 -356 l-67 -58 -5 -352 c-5 -387 -8 -411 -73 -600 -66
-191 -157 -337 -309 -495 -156 -163 -322 -272 -543 -356 -198 -76 -201 -76
-1015 -76 -617 0 -737 2 -808 16 -278 53 -534 189 -739 393 -230 230 -367 512
-400 821 -5 52 -10 218 -10 367 l0 273 -109 107 c-148 147 -209 253 -264 458
-18 68 -22 107 -21 265 0 173 2 191 28 280 61 210 181 371 369 497 149 100
260 132 452 133 44 0 85 4 91 8 24 16 34 54 34 129 0 300 231 629 530 754 142
60 315 75 456 39z"/>
<path d="M3893 4156 c-97 -196 -196 -317 -301 -368 -62 -30 -74 -33 -162 -33
-83 1 -101 4 -147 28 -63 33 -122 90 -163 157 -29 47 -31 -84 -3 -160 36 -98
114 -183 208 -227 53 -24 72 -28 155 -28 86 0 101 3 160 31 36 17 84 48 107
68 49 43 107 141 124 211 6 28 16 58 21 67 18 36 59 338 45 338 -1 0 -21 -38
-44 -84z"/>
<path d="M2786 4138 c-2 -7 -11 -42 -20 -77 -51 -197 -178 -317 -346 -329
-135 -9 -238 34 -349 145 -40 41 -75 72 -77 70 -8 -8 28 -126 58 -186 93 -188
275 -277 463 -226 122 33 230 139 262 257 15 54 31 358 19 358 -4 0 -8 -6 -10
-12z"/>
<path d="M4876 3390 c-10 -52 -71 -172 -120 -237 -63 -83 -135 -146 -204 -179
-80 -39 -221 -46 -303 -15 -109 41 -187 123 -232 242 l-25 64 -7 -38 c-4 -22
-5 -67 -1 -102 22 -211 144 -348 344 -385 71 -12 172 4 243 40 55 28 140 109
179 170 59 92 121 279 135 408 7 65 2 84 -9 32z"/>
<path d="M1882 3259 c-17 -92 -54 -160 -122 -222 -84 -78 -146 -100 -270 -95
-84 3 -103 7 -160 36 -87 44 -170 119 -237 214 -30 43 -56 78 -58 78 -6 0 17
-88 44 -168 69 -200 192 -322 360 -357 68 -14 172 -2 237 27 59 25 167 127
184 171 7 18 22 55 33 82 17 40 21 70 20 150 0 55 -5 111 -10 123 -8 21 -11
16 -21 -39z"/>
<path d="M4027 2400 c50 -105 63 -309 28 -430 -78 -268 -286 -433 -565 -447
-89 -4 -124 -1 -230 21 -353 75 -403 72 -694 -41 -166 -65 -242 -83 -361 -83
-152 0 -276 42 -393 133 -97 74 -170 189 -198 311 l-14 61 4 -110 c6 -192 78
-351 215 -478 152 -140 330 -192 556 -163 59 8 240 68 302 100 27 13 69 16
272 16 l239 0 79 -33 c178 -77 203 -82 373 -81 175 0 219 11 340 83 67 40 167
139 209 207 35 57 81 170 98 239 19 80 19 234 -1 317 -19 80 -64 183 -108 246
-33 48 -157 182 -169 182 -3 0 5 -23 18 -50z"/>
</g>
</svg>
